# xmcd
#
# Track frame offsets:
#	150
#	13391
#	24479
#	35447
#	46533
#	57450
#	68003
#	79633
#	90407
#	102433
#	114338
#	125827
#	135968
#	146080
#	157119
#	167341
#	179690
#	192286
#	204018
#	215568
#	227921
#	242006
#	255045
#	264885
#	276588
#	288040
#	298867
#	310472
#	321530
#	331887
#	343868
#
# Disc length: 4707 seconds
#
# Revision: 1
# Processed by: cddbd v1.5.2PL0 Copyright (c) Steve Scherf et al.
# Submitted via: audiograbber 1.83.01
#
DISCID=c712611f
DTITLE=Hank Locklin - Please Help Me I'm Falling CD3
DYEAR=1995
DGENRE=Country
TTITLE0=Jealous Heart
TTITLE1=One Has My Heart (The Other Has My Name)
TTITLE2=I Can't Stop Loving You
TTITLE3=Johnny My Love (Grandma's Diary)
TTITLE4=You're the Reason
TTITLE5=The Keeper of the Keys
TTITLE6=Happy Birthday to Me
TTITLE7=I Can See an Angel
TTITLE8=Happy Journey
TTITLE9=I Need You Now
TTITLE10=Welcome Home, Mister Blues
TTITLE11=We're Gonna Go Fishing
TTITLE12=Rudolph the Red-Nosed Reindeer
TTITLE13=All the World Is Lonley Now
TTITLE14=We Live in Two Different Worlds
TTITLE15=Waltz of the Wind
TTITLE16=The Great Speckled Bird
TTITLE17=Pins and Needles (In My Heart)
TTITLE18=As Long as I Live
TTITLE19=Blue Eyes Crying in the Rain
TTITLE20=Maple on the Hill
TTITLE21=Wabash Cannonball
TTITLE22=The Wreck on the Highway
TTITLE23=A Precious Jewel
TTITLE24=Once More
TTITLE25=Heading Down the Wrong Way
TTITLE26=Mansion on the Hill
TTITLE27=They'll Never Take Her Love from Me
TTITLE28=I Love You Because
TTITLE29=Bummin' Around
TTITLE30=Slowly
EXTD=
EXTT0=
EXTT1=
EXTT2=
EXTT3=
EXTT4=
EXTT5=
EXTT6=
EXTT7=
EXTT8=
EXTT9=
EXTT10=
EXTT11=
EXTT12=
EXTT13=
EXTT14=
EXTT15=
EXTT16=
EXTT17=
EXTT18=
EXTT19=
EXTT20=
EXTT21=
EXTT22=
EXTT23=
EXTT24=
EXTT25=
EXTT26=
EXTT27=
EXTT28=
EXTT29=
EXTT30=
PLAYORDER=
